<?xml version="1.0"?>
<svg version="1.1" xmlns="http://www.w3.org/2000/svg" width="182" height="90" style=""><path fill="#fcfafa" d="M12.6904296875,81.9638671875q0.0751953125-0.3115234375,0.3115234375-0.4833984375t0.7734375-0.171875q0.580078125,0,1.095703125,0.34375t0.751953125,0.837890625q0.751953125-1.181640625,1.181640625-2.75t0.6552734375-3.265625t0.2685546875-3.3408203125t0.04296875-3.0185546875q0-4.318359375,0.107421875-8.486328125t0.34375-8.486328125q0-0.30078125,0.2578125-0.5048828125t0.5908203125-0.3115234375t0.6875-0.150390625t0.6123046875-0.04296875q0.494140625,0,0.966796875,0.12890625t0.880859375,0.38671875l0.2578125,0.494140625q-0.04296875,3.072265625-0.171875,6.1337890625t-0.12890625,6.0908203125q0,1.181640625,0.04296875,3.09375q0.021484375,0.623046875,0.021484375,1.2890625q0,1.33203125-0.064453125,2.79296875q-0.0859375,2.19140625-0.3759765625,4.4150390625t-0.9453125,4.0283203125t-1.783203125,2.9541015625t-2.8466796875,1.1494140625q-0.751953125,0-1.4072265625-0.1826171875t-1.1708984375-0.6982421875q-0.494140625-0.4296875-0.708984375-0.923828125q-0.12890625-0.30078125-0.2255859375-0.6552734375t-0.021484375-0.666015625z M18.78125,47.599609375l0-1.3212890625t0.150390625-1.16015625t0.5693359375-0.81640625t1.2138671875-0.3115234375q0.30078125,0,0.6123046875,0.04296875t0.5908203125,0.171875l0.47265625,0.537109375q0,0.623046875,0.021484375,1.375l0,0.171875q0,0.64453125-0.12890625,1.203125q-0.150390625,0.666015625-0.5478515625,1.1279296875t-1.2353515625,0.4619140625q-0.666015625,0-1.009765625-0.193359375t-0.666015625-0.81640625z M26.44408203125,59.39453125q0-1.224609375,0.3115234375-2.5244140625t0.98828125-2.341796875t1.7080078125-1.697265625t2.4921875-0.6552734375q1.095703125,0,2.3095703125,0.3759765625t2.2236328125,1.07421875t1.6435546875,1.7080078125t0.6337890625,2.255859375q0,1.50390625-0.5478515625,2.857421875t-1.5361328125,2.4169921875t-2.3095703125,1.67578125t-2.8681640625,0.6123046875q-1.267578125,0-2.212890625-0.4619140625t-1.5791015625-1.2353515625t-0.9453125-1.826171875t-0.3115234375-2.234375z M29.60228515625,59.3515625q0,0.38671875,0.1181640625,1.138671875t0.3544921875,1.4716796875t0.6123046875,1.24609375t0.9130859375,0.4833984375q1.138671875-0.12890625,1.8798828125-0.7412109375t1.203125-1.4931640625t0.64453125-1.912109375t0.1826171875-1.955078125q0-1.181640625-0.4619140625-1.9765625t-1.5146484375-1.2890625q0,0.04296875,0.04296875,0.04296875t0.04296875-0.04296875l-0.537109375-0.12890625q-0.21484375-0.0859375-0.5263671875-0.193359375t-0.6123046875-0.47265625q-0.837890625,0.30078125-1.2998046875,0.7734375t-0.6982421875,1.1494140625t-0.2900390625,1.6220703125t-0.0537109375,2.27734375z M42.7221484375,52.734375q0-1.50390625,0.1396484375-3.91015625t0.3330078125-4.962890625t0.4833984375-4.8447265625t0.6337890625-3.5126953125q0.12890625-0.537109375,0.6123046875-0.64453125t0.9775390625-0.107421875q0.666015625,0,1.1494140625,0.236328125t0.4833984375,1.03125q0,3.91015625-0.4833984375,7.8310546875t-0.5263671875,7.8310546875q0.666015625-1.009765625,1.71875-1.5146484375t2.234375-0.5048828125q1.6328125,0,2.814453125,0.666015625t1.912109375,1.71875t1.0849609375,2.4384765625t0.3544921875,2.8251953125q0,0.794921875-0.1611328125,1.9873046875t-0.4833984375,2.513671875t-0.81640625,2.62109375t-1.1708984375,2.3310546875t-1.5576171875,1.6650390625t-1.93359375,0.6337890625q-0.21484375,0-0.5693359375-0.064453125t-0.708984375-0.193359375t-0.5908203125-0.3330078125t-0.236328125-0.5048828125q0-0.34375,0.4189453125-0.4833984375t0.6767578125-0.1396484375q0.966796875-0.4296875,1.71875-1.7939453125t1.2568359375-2.9970703125t0.7626953125-3.2333984375t0.2578125-2.6103515625q0-0.580078125-0.171875-1.546875t-0.5263671875-1.912109375t-0.966796875-1.6328125t-1.4501953125-0.6875q-1.009765625,0-1.611328125,1.0419921875t-0.9453125,2.427734375t-0.4619140625,2.857421875t-0.1181640625,2.3095703125q0,0.537109375,0.1826171875,1.0634765625t0.4189453125,1.052734375t0.4189453125,1.07421875t0.1826171875,1.0849609375q0,0.2578125-0.2255859375,0.4296875t-0.5263671875,0.279296875t-0.6337890625,0.1396484375t-0.5048828125,0.0322265625q-1.224609375,0-1.697265625-0.580078125t-0.81640625-1.6328125q-0.751953125-2.384765625-1.0419921875-4.8447265625t-0.2900390625-4.9306640625z M61.49240234375,65.775390625q0-0.537109375,0.064453125-1.0849609375t0.064453125-1.0849609375l0-0.34375q0-0.666015625,0.5478515625-0.837890625t1.1279296875-0.171875q0.666015625,0,1.2783203125,0.279296875t0.6123046875,1.07421875q0.12890625,0.38671875,0.12890625,0.923828125l0,1.009765625q0,0.751953125-0.5263671875,1.0419921875t-1.4072265625,0.2900390625q-0.623046875,0-1.2568359375-0.2255859375t-0.6337890625-0.8701171875z M70.2616796875,53.6044921875q-0.0537109375-0.7197265625,0.0859375-1.3212890625t0.55859375-0.9775390625t1.3427734375-0.3759765625q0.21484375,0,0.5263671875,0.0537109375t0.6123046875,0.1396484375t0.5048828125,0.2578125t0.2041015625,0.47265625l0,2.427734375q0.837890625-0.966796875,1.826171875-1.3857421875t2.255859375-0.4189453125q0.966796875,0,1.912109375,0.4404296875t1.783203125,1.1708984375t1.4501953125,1.611328125t0.8916015625,1.76171875q0.171875-0.794921875,0.38671875-1.9443359375t0.6337890625-2.2021484375t1.1064453125-1.8046875t1.826171875-0.751953125q1.224609375,0,2.0625,0.880859375t1.3642578125,2.2880859375t0.794921875,3.1474609375t0.3974609375,3.4375t0.12890625,3.1689453125l0,2.3095703125q0,0.2578125-0.193359375,0.4189453125t-0.4833984375,0.2470703125t-0.6015625,0.107421875t-0.4833984375,0.021484375q-0.666015625,0-1.2138671875-0.2041015625t-0.5478515625-1.0419921875l0-1.93359375t-0.04296875-2.5029296875t-0.150390625-2.685546875t-0.279296875-2.4384765625t-0.4404296875-1.76171875t-0.6552734375-0.6875q-0.537109375,0-0.7734375,0.6015625t-0.3974609375,1.525390625t-0.2470703125,1.955078125t-0.236328125,1.955078125t-0.4833984375,1.5146484375t-0.9130859375,0.5908203125q-0.623046875,0-1.095703125-0.5908203125t-0.9345703125-1.4716796875t-0.923828125-1.890625t-1.0205078125-1.890625q-0.55859375-0.90234375-1.203125-1.4609375q-0.580078125-0.537109375-1.310546875-0.515625l-0.107421875,0q-0.966796875,0.04296875-1.5146484375,0.6982421875t-0.837890625,1.6005859375t-0.3544921875,2.0302734375t-0.064453125,1.9013671875q0,0.7734375,0.12890625,1.8046875q0.0859375,0.6875,0.0859375,1.310546875q0,0.322265625-0.021484375,0.623046875q-0.064453125,0.90234375-0.4833984375,1.5146484375t-1.5576171875,0.6123046875q-0.4296875,0-1.07421875-0.0859375t-0.859375-0.580078125q-0.494140625-0.880859375-0.751953125-2.2236328125t-0.38671875-2.771484375t-0.150390625-2.8359375t-0.021484375-2.4169921875q0-0.708984375-0.0537109375-1.4287109375z M97.35712890625,58.986328125q0-1.4609375,0.3974609375-2.814453125t1.1923828125-2.4169921875t1.9873046875-1.697265625t2.7607421875-0.6337890625q0.966796875,0,2.1376953125,0.2900390625t2.2021484375,0.859375t1.71875,1.4501953125t0.6875,2.01953125q0,0.537109375-0.1826171875,0.81640625t-0.7412109375,0.279296875l-0.236328125-0.04296875q0.623046875,1.67578125,1.07421875,3.4375t0.880859375,3.5234375q0.171875,0.34375,0.2578125,0.6123046875t0.0859375,0.5263671875q0,0.34375-0.193359375,0.5693359375t-0.5048828125,0.3330078125t-0.64453125,0.150390625t-0.5908203125,0.04296875q-0.923828125,0-1.3857421875-0.322265625t-0.666015625-0.880859375t-0.2470703125-1.2568359375t-0.171875-1.4072265625q-0.2578125,0.837890625-0.6767578125,1.6328125t-0.98828125,1.4287109375t-1.3427734375,1.009765625t-1.740234375,0.3759765625q-1.41796875,0-2.384765625-0.81640625t-1.5576171875-2.0087890625t-0.859375-2.5458984375t-0.2685546875-2.513671875z M100.40791015625,58.685546875q0,0.794921875,0.107421875,1.67578125t0.3544921875,1.740234375t0.6337890625,1.6220703125t0.966796875,1.3427734375q1.052734375-1.138671875,1.5576171875-2.771484375t0.90234375-3.1474609375t0.90234375-2.599609375t1.5576171875-1.0849609375q0.666015625,0,1.1171875,0.236328125q-0.21484375-0.537109375-0.708984375-1.0419921875t-1.1064453125-0.923828125t-1.267578125-0.6875t-1.2353515625-0.2685546875q-0.171875,0-0.3974609375,0.0537109375t-0.3544921875,0.0107421875q-0.880859375,0.2578125-1.4501953125,0.8916015625t-0.923828125,1.4931640625t-0.5048828125,1.76171875t-0.150390625,1.697265625z M115.9769921875,51.208984375q0-1.009765625,0.3974609375-1.4931640625t1.4501953125-0.4833984375q0.623046875,0,1.1708984375,0.2578125t0.5478515625,1.095703125q0.0859375,1.224609375,0.0859375,2.5673828125t0.236328125,2.5458984375q0.537109375-0.880859375,1.2138671875-1.76171875t1.4931640625-1.568359375t1.783203125-1.1064453125t2.10546875-0.4189453125q1.546875,0,2.62109375,0.64453125t1.7724609375,1.67578125t1.009765625,2.3310546875t0.3115234375,2.6103515625q0,2.01953125-0.6123046875,3.2978515625t-1.6220703125,2.0087890625t-2.2880859375,0.98828125t-2.5673828125,0.2578125q-1.138671875,0-2.126953125-0.4404296875t-1.375-1.6650390625q0-0.34375,0.5048828125-0.4296875t0.7197265625-0.0859375q0.708984375,0,1.052734375,0.38671875q0.2578125,0.30078125,0.5693359375,0.6123046875t0.6552734375,0.3115234375q0.666015625,0,1.396484375-0.3759765625t1.3427734375-0.98828125t1.03125-1.4501953125t0.4189453125-1.71875q0-0.751953125-0.12890625-1.869140625t-0.4404296875-2.1484375t-0.859375-1.783203125t-1.3857421875-0.751953125q-1.267578125,0-2.2880859375,1.16015625t-1.697265625,2.79296875t-1.052734375,3.39453125t-0.3759765625,2.943359375t0.150390625,2.986328125t0.3115234375,3.7490234375t0.3115234375,3.7490234375t0.150390625,2.986328125q0,0.30078125-0.2470703125,0.4833984375t-0.5908203125,0.2900390625t-0.6982421875,0.12890625t-0.5263671875,0.021484375q-0.580078125,0-1.2138671875-0.12890625t-0.8701171875-0.794921875q-0.30078125-1.052734375-0.55859375-2.9970703125t-0.4619140625-4.296875t-0.3544921875-4.94140625t-0.2578125-4.9951171875t-0.1611328125-4.404296875t-0.0537109375-3.1796875z M136.57341796875,54.49609375q0-1.8046875,0.1181640625-4.2431640625t0.4619140625-5.0380859375t1.052734375-5.1455078125t1.8798828125-4.576171875t2.900390625-3.2548828125t4.2001953125-1.224609375q0.171875,0,0.4619140625,0.04296875t0.5908203125,0.150390625t0.5263671875,0.2578125t0.2255859375,0.38671875q0,0.21484375-0.3115234375,0.38671875t-0.708984375,0.3544921875t-0.7626953125,0.3115234375t-0.515625,0.21484375q-1.4609375,0.837890625-2.4384765625,2.2451171875t-1.6435546875,3.1904296875t-1.009765625,3.78125t-0.5263671875,3.9853515625t-0.2041015625,3.8349609375t-0.021484375,3.287109375q0,2.01953125,0.12890625,4.1572265625t0.5263671875,4.232421875t1.1708984375,4.0498046875t2.041015625,3.630859375q1.181640625,0,1.76171875,0.6982421875t0.580078125,1.8583984375q0,0.30078125-0.2685546875,0.47265625t-0.6123046875,0.279296875t-0.7197265625,0.1396484375t-0.5478515625,0.0322265625q-1.41796875,0-2.427734375-0.859375t-1.8046875-1.912109375q-1.267578125-1.67578125-2.0625-3.56640625t-1.2568359375-3.9208984375t-0.623046875-4.1142578125t-0.1611328125-4.125z M153.38859375,32.732421875q0-0.34375,0.2041015625-0.5478515625t0.515625-0.3115234375t0.64453125-0.12890625t0.5908203125-0.021484375q0.923828125,0,1.6865234375,0.5048828125t1.4287109375,1.224609375t1.2138671875,1.5791015625t1.0205078125,1.525390625q1.310546875,1.93359375,2.1376953125,4.0712890625t1.2890625,4.3935546875t0.6123046875,4.59765625t0.150390625,4.662109375q0,1.052734375-0.193359375,2.8359375t-0.5908203125,3.8564453125t-0.9990234375,4.1572265625t-1.4287109375,3.802734375t-1.912109375,2.79296875t-2.3955078125,1.07421875q-0.21484375,0-0.6123046875-0.04296875t-0.794921875-0.150390625t-0.6875-0.30078125t-0.2900390625-0.515625q0-0.494140625,0.3759765625-0.73046875t0.7626953125-0.322265625q0.966796875-1.67578125,1.783203125-3.759765625t1.3857421875-4.3291015625t0.880859375-4.46875t0.3115234375-4.1572265625q0-3.115234375-0.3115234375-5.8544921875t-1.07421875-5.2421875t-2.01953125-4.85546875t-3.1474609375-4.7802734375z"/><path fill="#" d=""/></svg>
